<svg width="376" height="340" viewBox="0 0 376 340" fill="none" xmlns="http://www.w3.org/2000/svg">
<path d="M367.752 70.6235C360.625 61.9139 349.537 56.6202 338.063 56.6202H96.9871L89.4718 28.6134C85.111 12.3328 70.0806 0.976318 52.653 0.976318H12.2783C5.55166 0.976318 0 6.26984 0 12.7173C0 19.1497 5.53583 24.4585 12.2783 24.4585H52.653C58.591 24.4585 63.7405 28.244 65.3176 33.9222L113.61 217.905C117.97 234.186 133.001 245.543 150.429 245.543H308.373C325.783 245.543 341.233 234.186 345.191 217.905L374.881 101.308C377.649 90.6909 375.284 79.3343 367.752 70.6247V70.6235ZM350.744 95.9834L321.053 212.581C319.476 218.258 314.327 222.045 308.388 222.045H150.429C144.491 222.045 139.341 218.258 137.764 212.581L103.327 80.4742H338.08C342.04 80.4742 345.999 82.367 348.379 85.3983C350.746 88.4149 351.921 92.2005 350.746 95.9861L350.744 95.9834Z" fill="#333333"/>
<path d="M158.754 260.65C136.193 260.65 117.592 278.439 117.592 300.012C117.592 321.585 136.195 339.373 158.754 339.373C181.316 339.388 199.917 321.6 199.917 300.023C199.917 278.446 181.314 260.646 158.754 260.646V260.65ZM158.754 315.541C149.646 315.541 142.517 308.724 142.517 300.014C142.517 291.304 149.646 284.487 158.754 284.487C167.862 284.487 174.991 291.304 174.991 300.014C174.976 308.353 167.461 315.541 158.754 315.541Z" fill="#333333"/>
<path d="M294.925 260.65C272.365 260.65 253.762 278.441 253.762 300.014C253.762 321.585 272.367 339.375 294.925 339.375C317.485 339.375 336.088 321.585 336.088 300.014C335.702 278.454 317.485 260.65 294.925 260.65ZM294.925 315.541C285.818 315.541 278.689 308.724 278.689 300.014C278.689 291.306 285.818 284.487 294.925 284.487C304.034 284.487 311.163 291.306 311.163 300.014C311.163 308.353 303.631 315.541 294.925 315.541Z" fill="#333333"/>
<path d="M200 166C204.378 179.199 213.919 190.429 228.275 191.919C240.766 193.216 245.807 178.562 250 168.911" stroke="#333333" stroke-width="15" stroke-linecap="round"/>
<path d="M173 133C175.936 128.377 179.547 124.015 182.818 119.589C184.079 117.883 186.528 112.731 189.364 113.011C190.479 113.121 191.077 114.492 191.5 115.275C193.122 118.273 194.335 121.456 195.909 124.479C197.209 126.974 199.278 129.516 200 132.231" stroke="#333333" stroke-width="15" stroke-linecap="round"/>
<path d="M250 132.579C252.829 128.312 257.141 124.343 261.014 120.649C262.657 119.082 264.36 117 267.136 117C270.001 117 271.225 117.954 272.38 120.088C275.958 126.701 277.729 133.895 279 141" stroke="#333333" stroke-width="15" stroke-linecap="round"/>
</svg>
